# xmcd
#
# Track frame offsets: 
#        150
#        33040
#        67319
#        94226
#        130674
#        157228
#        188443
#        206865
#        220396
#
# Disc length: 4373 seconds
#
# Revision: 0
# Processed by: cddbd v1.5.2PL0 Copyright (c) Steve Scherf et al.
# Submitted via: ExactAudioCopy v0.95a5
#
DISCID=85111309
DTITLE=管平湖 - 管平湖古琴曲集 CD3
DYEAR=2015
DGENRE=Folk
TTITLE0=流水
TTITLE1=渔歌
TTITLE2=阳春
TTITLE3=梅花三弄
TTITLE4=长门怨
TTITLE5=平沙落雁
TTITLE6=四大景
TTITLE7=关山月
TTITLE8=秋鸿
EXTD=
EXTT0=
EXTT1=
EXTT2=
EXTT3=
EXTT4=
EXTT5=
EXTT6=
EXTT7=
EXTT8=
PLAYORDER=
